<svg xmlns="http://www.w3.org/2000/svg" width="1280" height="900" viewBox="0 0 1280 900" role="img" aria-label="2단계 검색 설계 목업 empty dark"><defs><marker id="arrow" markerWidth="5" markerHeight="5" refX="4" refY="2.5" orient="auto"><path d="M0 0 L5 2.5 L0 5" fill="#7989a0"/></marker></defs><g font-family="Geist Variable,-apple-system,BlinkMacSystemFont,Apple SD Gothic Neo,Malgun Gothic,sans-serif"><rect x="0" y="0" width="1280" height="900" rx="0" fill="#020617" /><text x="20" y="29" font-size="16" fill="#e2e8f0" font-weight="600" text-anchor="start">2단계 · 프로젝트 전체 관계 노드 검색</text><text x="20" y="54" font-size="12" fill="#a3b2c7" font-weight="400" text-anchor="start">설계 목업 · 승인 전 / 합성 예시 / 제품 기능 및 저장 API 미연결</text><text x="1260" y="29" font-size="12" fill="#34d399" font-weight="500" text-anchor="end">검색 결과 없음</text><path d="M0 72 L1280 72" fill="none" stroke="#2b384c" /><rect x="0" y="73" width="48" height="827" rx="0" fill="#0f172a" /><path d="M48 73 L48 900" fill="none" stroke="#2b384c" /><rect x="21" y="94" width="5" height="5" rx="1" fill="none" stroke="#34d399" /><rect x="15" y="104" width="5" height="5" rx="1" fill="none" stroke="#34d399" /><rect x="27" y="104" width="5" height="5" rx="1" fill="none" stroke="#34d399" /><path d="M23.5 99 V102 H17.5 V104 M23.5 102 H29.5 V104" fill="none" stroke="#34d399" stroke-width="1.2" /><rect x="16" y="149" width="15" height="15" rx="2" fill="none" stroke="#a3b2c7" /><path d="M20 149 L20 164" fill="none" stroke="#a3b2c7" /><circle cx="22" cy="206" r="3" stroke="#a3b2c7" fill="none"/><path d="M17 217 C17 209 27 209 27 217" fill="none" stroke="#a3b2c7" stroke-width="1.2" /><rect x="7" y="250" width="34" height="34" rx="7" fill="#203044" /><rect x="21" y="256" width="5" height="5" rx="1" fill="none" stroke="#34d399" /><rect x="15" y="266" width="5" height="5" rx="1" fill="none" stroke="#34d399" /><rect x="27" y="266" width="5" height="5" rx="1" fill="none" stroke="#34d399" /><path d="M23.5 261 V264 H17.5 V266 M23.5 264 H29.5 V266" fill="none" stroke="#34d399" stroke-width="1.2" /><rect x="16" y="311" width="15" height="15" rx="2" fill="none" stroke="#a3b2c7" /><path d="M20 311 L20 326" fill="none" stroke="#a3b2c7" /><rect x="16" y="365" width="15" height="15" rx="2" fill="none" stroke="#a3b2c7" /><path d="M20 365 L20 380" fill="none" stroke="#a3b2c7" /><rect x="16" y="817" width="15" height="15" rx="2" fill="none" stroke="#a3b2c7" /><path d="M20 817 L20 832" fill="none" stroke="#a3b2c7" /><rect x="16" y="864" width="15" height="15" rx="2" fill="none" stroke="#a3b2c7" /><path d="M20 864 L20 879" fill="none" stroke="#a3b2c7" /><path d="M266 73 L266 900" fill="none" stroke="#2b384c" /><path d="M1004 73 L1004 900" fill="none" stroke="#2b384c" /><text x="65" y="107" font-size="15" fill="#e2e8f0" font-weight="600" text-anchor="start">Graph filters</text><path d="M64 124 L250 124" fill="none" stroke="#2b384c" /><text x="65" y="153" font-size="12" fill="#a3b2c7" font-weight="600" text-anchor="start">출처</text><rect x="66" y="166" width="13" height="13" rx="3" fill="#203044" stroke="#2b384c" /><text x="89" y="177" font-size="13" fill="#e2e8f0" font-weight="400" text-anchor="start">HUMAN</text><text x="246" y="177" font-size="12" fill="#a3b2c7" font-weight="400" text-anchor="end">142</text><rect x="66" y="198" width="13" height="13" rx="3" fill="#203044" stroke="#2b384c" /><text x="89" y="209" font-size="13" fill="#e2e8f0" font-weight="400" text-anchor="start">SCANNER</text><text x="246" y="209" font-size="12" fill="#a3b2c7" font-weight="400" text-anchor="end">56</text><rect x="66" y="230" width="13" height="13" rx="3" fill="#203044" stroke="#2b384c" /><text x="89" y="241" font-size="13" fill="#e2e8f0" font-weight="400" text-anchor="start">LLM</text><text x="246" y="241" font-size="12" fill="#a3b2c7" font-weight="400" text-anchor="end">31</text><text x="65" y="299" font-size="12" fill="#a3b2c7" font-weight="600" text-anchor="start">신원</text><rect x="66" y="315" width="13" height="13" rx="3" fill="#203044" stroke="#2b384c" /><path d="M69 321 l3 3 l5 -6" fill="none" stroke="#e2e8f0" stroke-width="1.2" /><text x="89" y="326" font-size="13" fill="#e2e8f0" font-weight="400" text-anchor="start">USER A</text><text x="246" y="326" font-size="12" fill="#a3b2c7" font-weight="400" text-anchor="end">64</text><rect x="66" y="347" width="13" height="13" rx="3" fill="#020617" stroke="#2b384c" /><text x="89" y="358" font-size="13" fill="#e2e8f0" font-weight="400" text-anchor="start">USER B</text><text x="246" y="358" font-size="12" fill="#a3b2c7" font-weight="400" text-anchor="end">39</text><rect x="66" y="379" width="13" height="13" rx="3" fill="#020617" stroke="#2b384c" /><text x="89" y="390" font-size="13" fill="#e2e8f0" font-weight="400" text-anchor="start">ADMIN</text><text x="246" y="390" font-size="12" fill="#a3b2c7" font-weight="400" text-anchor="end">21</text><text x="65" y="448" font-size="12" fill="#a3b2c7" font-weight="600" text-anchor="start">응답 코드</text><rect x="66" y="464" width="13" height="13" rx="3" fill="#020617" stroke="#2b384c" /><text x="89" y="475" font-size="13" fill="#e2e8f0" font-weight="400" text-anchor="start" font-family="SFMono-Regular,Consolas,monospace">2xx</text><text x="246" y="475" font-size="12" fill="#a3b2c7" font-weight="400" text-anchor="end">129</text><rect x="66" y="493" width="13" height="13" rx="3" fill="#020617" stroke="#2b384c" /><text x="89" y="504" font-size="13" fill="#e2e8f0" font-weight="400" text-anchor="start" font-family="SFMono-Regular,Consolas,monospace">3xx</text><text x="246" y="504" font-size="12" fill="#a3b2c7" font-weight="400" text-anchor="end">12</text><rect x="66" y="522" width="13" height="13" rx="3" fill="#020617" stroke="#2b384c" /><text x="89" y="533" font-size="13" fill="#e2e8f0" font-weight="400" text-anchor="start" font-family="SFMono-Regular,Consolas,monospace">4xx</text><text x="246" y="533" font-size="12" fill="#a3b2c7" font-weight="400" text-anchor="end">83</text><rect x="66" y="551" width="13" height="13" rx="3" fill="#020617" stroke="#2b384c" /><text x="89" y="562" font-size="13" fill="#e2e8f0" font-weight="400" text-anchor="start" font-family="SFMono-Regular,Consolas,monospace">5xx</text><text x="246" y="562" font-size="12" fill="#a3b2c7" font-weight="400" text-anchor="end">5</text><text x="65" y="628" font-size="12" fill="#a3b2c7" font-weight="600" text-anchor="start">그래프 조작</text><text x="77" y="661" font-size="13" fill="#e2e8f0" font-weight="400" text-anchor="start">18개로 접기</text><text x="77" y="694" font-size="13" fill="#e2e8f0" font-weight="400" text-anchor="start">레인 기준 재정렬</text><text x="77" y="727" font-size="13" fill="#e2e8f0" font-weight="400" text-anchor="start">위치 잠금</text><text x="77" y="760" font-size="13" fill="#e2e8f0" font-weight="400" text-anchor="start">초기화</text><rect x="282" y="84" width="30" height="30" rx="5" fill="#020617" stroke="#2b384c" /><text x="297" y="104" font-size="12" fill="#e2e8f0" font-weight="500" text-anchor="middle">‹</text><rect x="318" y="84" width="30" height="30" rx="5" fill="#020617" stroke="#2b384c" /><text x="333" y="104" font-size="12" fill="#e2e8f0" font-weight="500" text-anchor="middle">›</text><rect x="358" y="84" width="57" height="30" rx="5" fill="#203044" stroke="#2b384c" /><text x="386.5" y="104" font-size="12" fill="#e2e8f0" font-weight="500" text-anchor="middle">그래프</text><text x="426" y="104" font-size="12" fill="#e2e8f0" font-weight="400" text-anchor="start">목록</text><rect x="470" y="84" width="342" height="32" rx="5" fill="#111820" stroke="#34d399" /><circle cx="486" cy="98" r="5" stroke="#a3b2c7" fill="none" stroke-width="1.4"/><path d="M490 102 L495 107" fill="none" stroke="#a3b2c7" stroke-width="1.4"/><text x="505" y="105" font-size="13" fill="#e2e8f0" font-weight="400" text-anchor="start">no-match</text><path d="M793 96 L801 104" fill="none" stroke="#a3b2c7" /><path d="M801 96 L793 104" fill="none" stroke="#a3b2c7" /><text x="857" y="104" font-size="18" fill="#e2e8f0" font-weight="400" text-anchor="start">−</text><text x="898" y="104" font-size="12" fill="#e2e8f0" font-weight="400" text-anchor="middle">80%</text><text x="935" y="104" font-size="18" fill="#e2e8f0" font-weight="400" text-anchor="start">+</text><rect x="963" y="92" width="5" height="5" rx="1" fill="none" stroke="#a3b2c7" /><rect x="957" y="102" width="5" height="5" rx="1" fill="none" stroke="#a3b2c7" /><rect x="969" y="102" width="5" height="5" rx="1" fill="none" stroke="#a3b2c7" /><path d="M965.5 97 V100 H959.5 V102 M965.5 100 H971.5 V102" fill="none" stroke="#a3b2c7" stroke-width="1.2" /><rect x="983" y="93" width="15" height="15" rx="2" fill="none" stroke="#a3b2c7" /><path d="M987 93 L987 108" fill="none" stroke="#a3b2c7" /><path d="M266 126 L1004 126" fill="none" stroke="#2b384c" /><text x="282" y="151" font-size="12" fill="#a3b2c7" font-weight="400" text-anchor="start">Site Overview  ›  ORDERS APIs</text><text x="988" y="151" font-size="11" fill="#a3b2c7" font-weight="400" text-anchor="end">노드 18개 더 보기</text><path d="M266 192 L1004 192" fill="none" stroke="#2b384c" /><text x="389" y="217" font-size="11" fill="#a3b2c7" font-weight="600" text-anchor="middle">IDENTITY</text><text x="635" y="217" font-size="11" fill="#a3b2c7" font-weight="600" text-anchor="middle">API</text><text x="881" y="217" font-size="11" fill="#a3b2c7" font-weight="600" text-anchor="middle">OBJECT</text><path d="M266 236 L1004 236" fill="none" stroke="#2b384c" /><path d="M482.234 386 H508.064 V401 H533.894" fill="none" stroke="#7989a0" stroke-width="1.2" marker-end="url(#arrow)"/><path d="M482.234 496 H508.064 V401 H533.894" fill="none" stroke="#7989a0" stroke-width="1.2" marker-end="url(#arrow)"/><path d="M730.94 401 H756.77 V432 H782.6" fill="none" stroke="#7989a0" stroke-width="1.2" marker-end="url(#arrow)"/><rect x="285.188" y="348" width="197.046" height="76" rx="6" fill="#111820" stroke="#2b384c" /><text x="297.188" y="366" font-size="9" fill="#a3b2c7" font-weight="600" text-anchor="start">IDENTITY</text><text x="297.188" y="391" font-size="11" fill="#e2e8f0" font-weight="500" text-anchor="start">USER A</text><rect x="285.188" y="458" width="197.046" height="76" rx="6" fill="#111820" stroke="#2b384c" /><text x="297.188" y="476" font-size="9" fill="#a3b2c7" font-weight="600" text-anchor="start">IDENTITY</text><text x="297.188" y="501" font-size="11" fill="#e2e8f0" font-weight="500" text-anchor="start">USER B</text><rect x="533.894" y="363" width="197.046" height="76" rx="6" fill="#111820" stroke="#2b384c" stroke-dasharray="4 3"/><text x="545.894" y="381" font-size="9" fill="#c4b5fd" font-weight="600" text-anchor="start">GET</text><text x="545.894" y="406" font-size="11" fill="#e2e8f0" font-weight="500" text-anchor="start" font-family="SFMono-Regular,Consolas,monospace">/api/orders/{id}</text><text x="545.894" y="426" font-size="10" fill="#a3b2c7" font-weight="400" text-anchor="start">접힘 · 18개</text><rect x="782.6" y="394" width="197.046" height="76" rx="6" fill="#111820" stroke="#2b384c" stroke-dasharray="4 3"/><text x="794.6" y="412" font-size="9" fill="#a3b2c7" font-weight="600" text-anchor="start">OBJECTS</text><text x="794.6" y="437" font-size="11" fill="#e2e8f0" font-weight="500" text-anchor="start" font-family="SFMono-Regular,Consolas,monospace">orders</text><text x="794.6" y="457" font-size="10" fill="#a3b2c7" font-weight="400" text-anchor="start">접힘 · 240개</text><rect x="533.894" y="611" width="197.046" height="76" rx="6" fill="#111820" stroke="#2b384c" /><text x="545.894" y="629" font-size="9" fill="#c4b5fd" font-weight="600" text-anchor="start">OPTIONS</text><text x="545.894" y="654" font-size="11" fill="#e2e8f0" font-weight="500" text-anchor="start" font-family="SFMono-Regular,Consolas,monospace">/api/orders</text><text x="545.894" y="674" font-size="10" fill="#a3b2c7" font-weight="400" text-anchor="start">204</text><rect x="282" y="850" width="218" height="27" rx="4" fill="#020617" stroke="#2b384c" /><text x="293" y="869" font-size="10" fill="#a3b2c7" font-weight="400" text-anchor="start">HUMAN    SCANNER    LLM</text><text x="1022" y="106" font-size="15" fill="#e2e8f0" font-weight="600" text-anchor="start">현재 보기</text><text x="1022" y="142" font-size="13" fill="#e2e8f0" font-weight="400" text-anchor="start" font-family="SFMono-Regular,Consolas,monospace">ORDERS APIs</text><text x="1022" y="178" font-size="12" fill="#a3b2c7" font-weight="600" text-anchor="start">서비스</text><text x="1022" y="204" font-size="12" fill="#e2e8f0" font-weight="400" text-anchor="start" font-family="SFMono-Regular,Consolas,monospace">https://shop-a.test:443</text><text x="1022" y="253" font-size="12" fill="#a3b2c7" font-weight="600" text-anchor="start">관측 기록</text><text x="1022" y="282" font-size="13" fill="#e2e8f0" font-weight="400" text-anchor="start">6건 · 기존 Evidence 연결</text><text x="1022" y="332" font-size="12" fill="#a3b2c7" font-weight="600" text-anchor="start">소속 경로</text><text x="1022" y="359" font-size="13" fill="#e2e8f0" font-weight="400" text-anchor="start">ORDERS APIs</text><text x="1022" y="442" font-size="12" fill="#a3b2c7" font-weight="600" text-anchor="start">프로젝트 배치</text><text x="1022" y="476" font-size="12" fill="#a3b2c7" font-weight="400" text-anchor="start">노드 위치</text><text x="1262" y="476" font-size="12" fill="#e2e8f0" font-weight="400" text-anchor="end">저장 좌표 유지</text><path d="M1022 489 L1262 489" fill="none" stroke="#2b384c" /><text x="1022" y="515" font-size="12" fill="#a3b2c7" font-weight="400" text-anchor="start">카드 크기</text><text x="1262" y="515" font-size="12" fill="#e2e8f0" font-weight="400" text-anchor="end">유지</text><path d="M1022 528 L1262 528" fill="none" stroke="#2b384c" /><text x="1022" y="554" font-size="12" fill="#a3b2c7" font-weight="400" text-anchor="start">화면 이동</text><text x="1262" y="554" font-size="12" fill="#e2e8f0" font-weight="400" text-anchor="end">viewport만 변경</text><path d="M1022 567 L1262 567" fill="none" stroke="#2b384c" /><text x="1022" y="628" font-size="12" fill="#a3b2c7" font-weight="400" text-anchor="start">노드를 누르면 상세를 표시합니다.</text><rect x="470" y="124" width="480" height="153" rx="8" fill="#101827" stroke="#2b384c" /><text x="486" y="151" font-size="13" fill="#e2e8f0" font-weight="600" text-anchor="start">프로젝트 전체 관계 노드</text><text x="934" y="151" font-size="11" fill="#a3b2c7" font-weight="400" text-anchor="end">0개</text><path d="M471 166 L949 166" fill="none" stroke="#2b384c" /><text x="486" y="200" font-size="14" fill="#e2e8f0" font-weight="500" text-anchor="start">일치하는 관계 노드가 없습니다.</text><text x="486" y="228" font-size="12" fill="#a3b2c7" font-weight="400" text-anchor="start">서비스, API 경로, 객체 ID 또는 신원으로 다시 검색하세요.</text></g></svg>