<svg xmlns="http://www.w3.org/2000/svg" width="1920" height="900" viewBox="0 0 1920 900" role="img" aria-label="2단계 검색 설계 목업 results dark"><defs><marker id="arrow" markerWidth="5" markerHeight="5" refX="4" refY="2.5" orient="auto"><path d="M0 0 L5 2.5 L0 5" fill="#7989a0"/></marker></defs><g font-family="Geist Variable,-apple-system,BlinkMacSystemFont,Apple SD Gothic Neo,Malgun Gothic,sans-serif"><rect x="0" y="0" width="1920" height="900" rx="0" fill="#020617" /><text x="20" y="29" font-size="16" fill="#e2e8f0" font-weight="600" text-anchor="start">2단계 · 프로젝트 전체 관계 노드 검색</text><text x="20" y="54" font-size="12" fill="#a3b2c7" font-weight="400" text-anchor="start">설계 목업 · 승인 전 / 합성 예시 / 제품 기능 및 저장 API 미연결</text><text x="1900" y="29" font-size="12" fill="#34d399" font-weight="500" text-anchor="end">검색 결과</text><path d="M0 72 L1920 72" fill="none" stroke="#2b384c" /><rect x="0" y="73" width="48" height="827" rx="0" fill="#0f172a" /><path d="M48 73 L48 900" fill="none" stroke="#2b384c" /><rect x="21" y="94" width="5" height="5" rx="1" fill="none" stroke="#34d399" /><rect x="15" y="104" width="5" height="5" rx="1" fill="none" stroke="#34d399" /><rect x="27" y="104" width="5" height="5" rx="1" fill="none" stroke="#34d399" /><path d="M23.5 99 V102 H17.5 V104 M23.5 102 H29.5 V104" fill="none" stroke="#34d399" stroke-width="1.2" /><rect x="16" y="149" width="15" height="15" rx="2" fill="none" stroke="#a3b2c7" /><path d="M20 149 L20 164" fill="none" stroke="#a3b2c7" /><circle cx="22" cy="206" r="3" stroke="#a3b2c7" fill="none"/><path d="M17 217 C17 209 27 209 27 217" fill="none" stroke="#a3b2c7" stroke-width="1.2" /><rect x="7" y="250" width="34" height="34" rx="7" fill="#203044" /><rect x="21" y="256" width="5" height="5" rx="1" fill="none" stroke="#34d399" /><rect x="15" y="266" width="5" height="5" rx="1" fill="none" stroke="#34d399" /><rect x="27" y="266" width="5" height="5" rx="1" fill="none" stroke="#34d399" /><path d="M23.5 261 V264 H17.5 V266 M23.5 264 H29.5 V266" fill="none" stroke="#34d399" stroke-width="1.2" /><rect x="16" y="311" width="15" height="15" rx="2" fill="none" stroke="#a3b2c7" /><path d="M20 311 L20 326" fill="none" stroke="#a3b2c7" /><rect x="16" y="365" width="15" height="15" rx="2" fill="none" stroke="#a3b2c7" /><path d="M20 365 L20 380" fill="none" stroke="#a3b2c7" /><rect x="16" y="817" width="15" height="15" rx="2" fill="none" stroke="#a3b2c7" /><path d="M20 817 L20 832" fill="none" stroke="#a3b2c7" /><rect x="16" y="864" width="15" height="15" rx="2" fill="none" stroke="#a3b2c7" /><path d="M20 864 L20 879" fill="none" stroke="#a3b2c7" /><path d="M292 73 L292 900" fill="none" stroke="#2b384c" /><path d="M1604 73 L1604 900" fill="none" stroke="#2b384c" /><text x="65" y="107" font-size="15" fill="#e2e8f0" font-weight="600" text-anchor="start">Graph filters</text><path d="M64 124 L276 124" fill="none" stroke="#2b384c" /><text x="65" y="153" font-size="12" fill="#a3b2c7" font-weight="600" text-anchor="start">출처</text><rect x="66" y="166" width="13" height="13" rx="3" fill="#203044" stroke="#2b384c" /><text x="89" y="177" font-size="13" fill="#e2e8f0" font-weight="400" text-anchor="start">HUMAN</text><text x="272" y="177" font-size="12" fill="#a3b2c7" font-weight="400" text-anchor="end">142</text><rect x="66" y="198" width="13" height="13" rx="3" fill="#203044" stroke="#2b384c" /><text x="89" y="209" font-size="13" fill="#e2e8f0" font-weight="400" text-anchor="start">SCANNER</text><text x="272" y="209" font-size="12" fill="#a3b2c7" font-weight="400" text-anchor="end">56</text><rect x="66" y="230" width="13" height="13" rx="3" fill="#203044" stroke="#2b384c" /><text x="89" y="241" font-size="13" fill="#e2e8f0" font-weight="400" text-anchor="start">LLM</text><text x="272" y="241" font-size="12" fill="#a3b2c7" font-weight="400" text-anchor="end">31</text><text x="65" y="299" font-size="12" fill="#a3b2c7" font-weight="600" text-anchor="start">신원</text><rect x="66" y="315" width="13" height="13" rx="3" fill="#203044" stroke="#2b384c" /><path d="M69 321 l3 3 l5 -6" fill="none" stroke="#e2e8f0" stroke-width="1.2" /><text x="89" y="326" font-size="13" fill="#e2e8f0" font-weight="400" text-anchor="start">USER A</text><text x="272" y="326" font-size="12" fill="#a3b2c7" font-weight="400" text-anchor="end">64</text><rect x="66" y="347" width="13" height="13" rx="3" fill="#020617" stroke="#2b384c" /><text x="89" y="358" font-size="13" fill="#e2e8f0" font-weight="400" text-anchor="start">USER B</text><text x="272" y="358" font-size="12" fill="#a3b2c7" font-weight="400" text-anchor="end">39</text><rect x="66" y="379" width="13" height="13" rx="3" fill="#020617" stroke="#2b384c" /><text x="89" y="390" font-size="13" fill="#e2e8f0" font-weight="400" text-anchor="start">ADMIN</text><text x="272" y="390" font-size="12" fill="#a3b2c7" font-weight="400" text-anchor="end">21</text><text x="65" y="448" font-size="12" fill="#a3b2c7" font-weight="600" text-anchor="start">응답 코드</text><rect x="66" y="464" width="13" height="13" rx="3" fill="#020617" stroke="#2b384c" /><text x="89" y="475" font-size="13" fill="#e2e8f0" font-weight="400" text-anchor="start" font-family="SFMono-Regular,Consolas,monospace">2xx</text><text x="272" y="475" font-size="12" fill="#a3b2c7" font-weight="400" text-anchor="end">129</text><rect x="66" y="493" width="13" height="13" rx="3" fill="#020617" stroke="#2b384c" /><text x="89" y="504" font-size="13" fill="#e2e8f0" font-weight="400" text-anchor="start" font-family="SFMono-Regular,Consolas,monospace">3xx</text><text x="272" y="504" font-size="12" fill="#a3b2c7" font-weight="400" text-anchor="end">12</text><rect x="66" y="522" width="13" height="13" rx="3" fill="#020617" stroke="#2b384c" /><text x="89" y="533" font-size="13" fill="#e2e8f0" font-weight="400" text-anchor="start" font-family="SFMono-Regular,Consolas,monospace">4xx</text><text x="272" y="533" font-size="12" fill="#a3b2c7" font-weight="400" text-anchor="end">83</text><rect x="66" y="551" width="13" height="13" rx="3" fill="#020617" stroke="#2b384c" /><text x="89" y="562" font-size="13" fill="#e2e8f0" font-weight="400" text-anchor="start" font-family="SFMono-Regular,Consolas,monospace">5xx</text><text x="272" y="562" font-size="12" fill="#a3b2c7" font-weight="400" text-anchor="end">5</text><text x="65" y="628" font-size="12" fill="#a3b2c7" font-weight="600" text-anchor="start">그래프 조작</text><text x="77" y="661" font-size="13" fill="#e2e8f0" font-weight="400" text-anchor="start">18개로 접기</text><text x="77" y="694" font-size="13" fill="#e2e8f0" font-weight="400" text-anchor="start">레인 기준 재정렬</text><text x="77" y="727" font-size="13" fill="#e2e8f0" font-weight="400" text-anchor="start">위치 잠금</text><text x="77" y="760" font-size="13" fill="#e2e8f0" font-weight="400" text-anchor="start">초기화</text><rect x="308" y="84" width="30" height="30" rx="5" fill="#020617" stroke="#2b384c" /><text x="323" y="104" font-size="12" fill="#e2e8f0" font-weight="500" text-anchor="middle">‹</text><rect x="344" y="84" width="30" height="30" rx="5" fill="#020617" stroke="#2b384c" /><text x="359" y="104" font-size="12" fill="#e2e8f0" font-weight="500" text-anchor="middle">›</text><rect x="384" y="84" width="57" height="30" rx="5" fill="#203044" stroke="#2b384c" /><text x="412.5" y="104" font-size="12" fill="#e2e8f0" font-weight="500" text-anchor="middle">그래프</text><text x="452" y="104" font-size="12" fill="#e2e8f0" font-weight="400" text-anchor="start">목록</text><rect x="496" y="84" width="350" height="32" rx="5" fill="#111820" stroke="#34d399" /><circle cx="512" cy="98" r="5" stroke="#a3b2c7" fill="none" stroke-width="1.4"/><path d="M516 102 L521 107" fill="none" stroke="#a3b2c7" stroke-width="1.4"/><text x="531" y="105" font-size="13" fill="#e2e8f0" font-weight="400" text-anchor="start">orders</text><path d="M827 96 L835 104" fill="none" stroke="#a3b2c7" /><path d="M835 96 L827 104" fill="none" stroke="#a3b2c7" /><text x="1457" y="104" font-size="18" fill="#e2e8f0" font-weight="400" text-anchor="start">−</text><text x="1498" y="104" font-size="12" fill="#e2e8f0" font-weight="400" text-anchor="middle">80%</text><text x="1535" y="104" font-size="18" fill="#e2e8f0" font-weight="400" text-anchor="start">+</text><rect x="1563" y="92" width="5" height="5" rx="1" fill="none" stroke="#a3b2c7" /><rect x="1557" y="102" width="5" height="5" rx="1" fill="none" stroke="#a3b2c7" /><rect x="1569" y="102" width="5" height="5" rx="1" fill="none" stroke="#a3b2c7" /><path d="M1565.5 97 V100 H1559.5 V102 M1565.5 100 H1571.5 V102" fill="none" stroke="#a3b2c7" stroke-width="1.2" /><rect x="1583" y="93" width="15" height="15" rx="2" fill="none" stroke="#a3b2c7" /><path d="M1587 93 L1587 108" fill="none" stroke="#a3b2c7" /><path d="M292 126 L1604 126" fill="none" stroke="#2b384c" /><text x="308" y="151" font-size="12" fill="#a3b2c7" font-weight="400" text-anchor="start">Site Overview  ›  ORDERS APIs</text><text x="1588" y="151" font-size="11" fill="#a3b2c7" font-weight="400" text-anchor="end">노드 18개 더 보기</text><path d="M292 192 L1604 192" fill="none" stroke="#2b384c" /><text x="510.667" y="217" font-size="11" fill="#a3b2c7" font-weight="600" text-anchor="middle">IDENTITY</text><text x="948" y="217" font-size="11" fill="#a3b2c7" font-weight="600" text-anchor="middle">API</text><text x="1385.33" y="217" font-size="11" fill="#a3b2c7" font-weight="600" text-anchor="middle">OBJECT</text><path d="M292 236 L1604 236" fill="none" stroke="#2b384c" /><path d="M548.112 386 H658.184 V401 H768.256" fill="none" stroke="#7989a0" stroke-width="1.2" marker-end="url(#arrow)"/><path d="M548.112 496 H658.184 V401 H768.256" fill="none" stroke="#7989a0" stroke-width="1.2" marker-end="url(#arrow)"/><path d="M990.256 401 H1100.33 V432 H1210.4" fill="none" stroke="#7989a0" stroke-width="1.2" marker-end="url(#arrow)"/><rect x="326.112" y="348" width="222" height="76" rx="6" fill="#111820" stroke="#2b384c" /><text x="338.112" y="366" font-size="9" fill="#a3b2c7" font-weight="600" text-anchor="start">IDENTITY</text><text x="338.112" y="391" font-size="11" fill="#e2e8f0" font-weight="500" text-anchor="start">USER A</text><rect x="326.112" y="458" width="222" height="76" rx="6" fill="#111820" stroke="#2b384c" /><text x="338.112" y="476" font-size="9" fill="#a3b2c7" font-weight="600" text-anchor="start">IDENTITY</text><text x="338.112" y="501" font-size="11" fill="#e2e8f0" font-weight="500" text-anchor="start">USER B</text><rect x="763.256" y="358" width="232" height="86" rx="9" fill="none" stroke="#34d399" stroke-width="1.5" stroke-dasharray="4 3"/><rect x="768.256" y="363" width="222" height="76" rx="6" fill="#111820" stroke="#2b384c" stroke-dasharray="4 3"/><text x="780.256" y="381" font-size="9" fill="#c4b5fd" font-weight="600" text-anchor="start">GET</text><text x="780.256" y="406" font-size="11" fill="#e2e8f0" font-weight="500" text-anchor="start" font-family="SFMono-Regular,Consolas,monospace">/api/orders/{id}</text><text x="780.256" y="426" font-size="10" fill="#a3b2c7" font-weight="400" text-anchor="start">접힘 · 18개</text><rect x="1205.4" y="389" width="232" height="86" rx="9" fill="none" stroke="#34d399" stroke-width="1.5" stroke-dasharray="4 3"/><rect x="1210.4" y="394" width="222" height="76" rx="6" fill="#111820" stroke="#2b384c" stroke-dasharray="4 3"/><text x="1222.4" y="412" font-size="9" fill="#a3b2c7" font-weight="600" text-anchor="start">OBJECTS</text><text x="1222.4" y="437" font-size="11" fill="#e2e8f0" font-weight="500" text-anchor="start" font-family="SFMono-Regular,Consolas,monospace">orders</text><text x="1222.4" y="457" font-size="10" fill="#a3b2c7" font-weight="400" text-anchor="start">접힘 · 240개</text><rect x="768.256" y="611" width="222" height="76" rx="6" fill="#111820" stroke="#2b384c" /><text x="780.256" y="629" font-size="9" fill="#c4b5fd" font-weight="600" text-anchor="start">OPTIONS</text><text x="780.256" y="654" font-size="11" fill="#e2e8f0" font-weight="500" text-anchor="start" font-family="SFMono-Regular,Consolas,monospace">/api/orders</text><text x="780.256" y="674" font-size="10" fill="#a3b2c7" font-weight="400" text-anchor="start">204</text><rect x="308" y="850" width="218" height="27" rx="4" fill="#020617" stroke="#2b384c" /><text x="319" y="869" font-size="10" fill="#a3b2c7" font-weight="400" text-anchor="start">HUMAN    SCANNER    LLM</text><text x="1622" y="106" font-size="15" fill="#e2e8f0" font-weight="600" text-anchor="start">현재 보기</text><text x="1622" y="142" font-size="13" fill="#e2e8f0" font-weight="400" text-anchor="start" font-family="SFMono-Regular,Consolas,monospace">ORDERS APIs</text><text x="1622" y="178" font-size="12" fill="#a3b2c7" font-weight="600" text-anchor="start">서비스</text><text x="1622" y="204" font-size="12" fill="#e2e8f0" font-weight="400" text-anchor="start" font-family="SFMono-Regular,Consolas,monospace">https://shop-a.test:443</text><text x="1622" y="253" font-size="12" fill="#a3b2c7" font-weight="600" text-anchor="start">관측 기록</text><text x="1622" y="282" font-size="13" fill="#e2e8f0" font-weight="400" text-anchor="start">6건 · 기존 Evidence 연결</text><text x="1622" y="332" font-size="12" fill="#a3b2c7" font-weight="600" text-anchor="start">소속 경로</text><text x="1622" y="359" font-size="13" fill="#e2e8f0" font-weight="400" text-anchor="start">ORDERS APIs</text><text x="1622" y="442" font-size="12" fill="#a3b2c7" font-weight="600" text-anchor="start">프로젝트 배치</text><text x="1622" y="476" font-size="12" fill="#a3b2c7" font-weight="400" text-anchor="start">노드 위치</text><text x="1902" y="476" font-size="12" fill="#e2e8f0" font-weight="400" text-anchor="end">저장 좌표 유지</text><path d="M1622 489 L1902 489" fill="none" stroke="#2b384c" /><text x="1622" y="515" font-size="12" fill="#a3b2c7" font-weight="400" text-anchor="start">카드 크기</text><text x="1902" y="515" font-size="12" fill="#e2e8f0" font-weight="400" text-anchor="end">유지</text><path d="M1622 528 L1902 528" fill="none" stroke="#2b384c" /><text x="1622" y="554" font-size="12" fill="#a3b2c7" font-weight="400" text-anchor="start">화면 이동</text><text x="1902" y="554" font-size="12" fill="#e2e8f0" font-weight="400" text-anchor="end">viewport만 변경</text><path d="M1622 567 L1902 567" fill="none" stroke="#2b384c" /><text x="1622" y="628" font-size="12" fill="#a3b2c7" font-weight="400" text-anchor="start">노드를 누르면 상세를 표시합니다.</text><rect x="496" y="124" width="480" height="447" rx="8" fill="#101827" stroke="#2b384c" /><text x="512" y="151" font-size="13" fill="#e2e8f0" font-weight="600" text-anchor="start">프로젝트 전체 관계 노드</text><text x="960" y="151" font-size="11" fill="#a3b2c7" font-weight="400" text-anchor="end">5개</text><path d="M497 166 L975 166" fill="none" stroke="#2b384c" /><rect x="502" y="171" width="468" height="67" rx="5" fill="#203044" /><text x="512" y="191" font-size="10" fill="#34d399" font-weight="600" text-anchor="start">API</text><text x="594" y="191" font-size="13" fill="#e2e8f0" font-weight="400" text-anchor="start" font-family="SFMono-Regular,Consolas,monospace">GET /api/orders/928</text><text x="594" y="211" font-size="11" fill="#a3b2c7" font-weight="400" text-anchor="start">shop-a.test:443 · ORDERS APIs</text><text x="594" y="229" font-size="10" fill="#a3b2c7" font-weight="400" text-anchor="start">묶음 접힘 · 18개 제한 밖</text><text x="512" y="263" font-size="10" fill="#34d399" font-weight="600" text-anchor="start">API</text><text x="594" y="263" font-size="13" fill="#e2e8f0" font-weight="400" text-anchor="start" font-family="SFMono-Regular,Consolas,monospace">GET /api/orders/928</text><text x="594" y="283" font-size="11" fill="#a3b2c7" font-weight="400" text-anchor="start">shop-b.test:443 · ORDERS APIs</text><text x="594" y="301" font-size="10" fill="#a3b2c7" font-weight="400" text-anchor="start">다른 서비스</text><text x="512" y="335" font-size="10" fill="#34d399" font-weight="600" text-anchor="start">객체</text><text x="594" y="335" font-size="13" fill="#e2e8f0" font-weight="400" text-anchor="start" font-family="SFMono-Regular,Consolas,monospace">orders:928</text><text x="594" y="355" font-size="11" fill="#a3b2c7" font-weight="400" text-anchor="start">shop-a.test:443 · GET /api/orders/928</text><text x="594" y="373" font-size="10" fill="#a3b2c7" font-weight="400" text-anchor="start">객체 묶음 접힘</text><text x="512" y="407" font-size="10" fill="#34d399" font-weight="600" text-anchor="start">API 묶음</text><text x="594" y="407" font-size="13" fill="#e2e8f0" font-weight="400" text-anchor="start" font-family="SFMono-Regular,Consolas,monospace">GET /api/orders/{id}</text><text x="594" y="427" font-size="11" fill="#a3b2c7" font-weight="400" text-anchor="start">shop-a.test:443 · ORDERS APIs</text><text x="594" y="445" font-size="10" fill="#a3b2c7" font-weight="400" text-anchor="start">자동 묶음</text><text x="512" y="479" font-size="10" fill="#34d399" font-weight="600" text-anchor="start">API 그룹</text><text x="594" y="479" font-size="13" fill="#e2e8f0" font-weight="400" text-anchor="start">ORDERS APIs</text><text x="594" y="499" font-size="11" fill="#a3b2c7" font-weight="400" text-anchor="start">shop-b.test:443 · Site Overview</text><text x="594" y="517" font-size="10" fill="#a3b2c7" font-weight="400" text-anchor="start">다른 계층</text><path d="M496 534 L976 534" fill="none" stroke="#2b384c" /><text x="512" y="557" font-size="11" fill="#a3b2c7" font-weight="400" text-anchor="start">↑↓ 결과 이동     Enter 선택     Esc 닫기</text></g></svg>